<mxfile host="Electron" modified="2023-11-11T05:10:14.255Z" agent="Mozilla/5.0 (Windows NT 10.0; Win64; x64) AppleWebKit/537.36 (KHTML, like Gecko) draw.io/22.0.2 Chrome/114.0.5735.289 Electron/25.8.4 Safari/537.36" etag="7gxMB2EBYl-Uz1PMwGOq" version="22.0.2" type="device">
  <diagram name="페이지-1" id="CYikRjp9szHOYINn8vE-">
    <mxGraphModel dx="1206" dy="809" grid="1" gridSize="10" guides="1" tooltips="1" connect="1" arrows="1" fold="1" page="1" pageScale="1" pageWidth="827" pageHeight="1169" math="0" shadow="0">
      <root>
        <mxCell id="0" />
        <mxCell id="1" parent="0" />
        <mxCell id="2588aT3ap5F5DYAYQADK-3" value="+ 버퍼링&lt;br&gt;기능 추가" style="ellipse;whiteSpace=wrap;html=1;" vertex="1" parent="1">
          <mxGeometry x="300" y="90" width="120" height="80" as="geometry" />
        </mxCell>
        <mxCell id="2588aT3ap5F5DYAYQADK-2" value="+ 문자로 변환&lt;br&gt;기능 추가" style="ellipse;whiteSpace=wrap;html=1;" vertex="1" parent="1">
          <mxGeometry x="190" y="90" width="120" height="80" as="geometry" />
        </mxCell>
        <mxCell id="2588aT3ap5F5DYAYQADK-1" value="바이트 단위&lt;br&gt;파일 입력 스트림" style="ellipse;whiteSpace=wrap;html=1;" vertex="1" parent="1">
          <mxGeometry x="80" y="90" width="120" height="80" as="geometry" />
        </mxCell>
        <mxCell id="2588aT3ap5F5DYAYQADK-4" value="기반 스트림" style="text;html=1;strokeColor=none;fillColor=none;align=center;verticalAlign=middle;whiteSpace=wrap;rounded=0;" vertex="1" parent="1">
          <mxGeometry x="92.5" y="180" width="95" height="30" as="geometry" />
        </mxCell>
        <mxCell id="2588aT3ap5F5DYAYQADK-5" value="보조 스트림" style="text;html=1;strokeColor=none;fillColor=none;align=center;verticalAlign=middle;whiteSpace=wrap;rounded=0;" vertex="1" parent="1">
          <mxGeometry x="202.5" y="180" width="95" height="30" as="geometry" />
        </mxCell>
        <mxCell id="2588aT3ap5F5DYAYQADK-6" value="보조 스트림" style="text;html=1;strokeColor=none;fillColor=none;align=center;verticalAlign=middle;whiteSpace=wrap;rounded=0;" vertex="1" parent="1">
          <mxGeometry x="312.5" y="180" width="95" height="30" as="geometry" />
        </mxCell>
      </root>
    </mxGraphModel>
  </diagram>
</mxfile>
